<svg width="42" height="42" viewBox="0 0 42 42" fill="none" xmlns="http://www.w3.org/2000/svg">
<path d="M34.6 16.3625C34.6 15.8103 34.1523 15.3625 33.6 15.3625C33.0477 15.3625 32.6 15.8103 32.6 16.3625H34.6ZM6.05754 28.3727C5.73179 27.9267 5.10617 27.8293 4.66018 28.155C4.21419 28.4808 4.11672 29.1064 4.44246 29.5524L6.05754 28.3727ZM5.08009 27.9771C4.53584 28.0709 4.1707 28.5882 4.26454 29.1325C4.35838 29.6767 4.87565 30.0418 5.41991 29.948L5.08009 27.9771ZM9.975 27.3876L10.2927 28.3357C10.6202 28.226 10.8678 27.9551 10.9478 27.6192C11.0278 27.2833 10.9288 26.9298 10.686 26.6843L9.975 27.3876ZM8.4 8.48755L9.28077 8.01401C9.11729 7.70993 8.80851 7.51169 8.46398 7.4896C8.11944 7.46751 7.78788 7.6247 7.58691 7.90541L8.4 8.48755ZM17.85 16.3625L17.6138 17.3343C17.9063 17.4053 18.2152 17.3409 18.4549 17.1588C18.6946 16.9768 18.8395 16.6964 18.8495 16.3956L17.85 16.3625ZM32.025 11.6375L31.1901 12.1879C31.3751 12.4686 31.6888 12.6375 32.025 12.6375V11.6375ZM36.75 11.6375L37.5821 12.1922C37.7866 11.8854 37.8057 11.4908 37.6317 11.1657C37.4577 10.8405 37.1188 10.6375 36.75 10.6375V11.6375ZM32.768 15.8078C32.4616 16.2674 32.5858 16.8882 33.0453 17.1946C33.5048 17.501 34.1257 17.3768 34.4321 16.9172L32.768 15.8078ZM32.6 16.3625C32.6 21.691 31.0785 26.1614 28.322 29.2853C25.5793 32.3937 21.5332 34.2625 16.275 34.2625V36.2625C22.0418 36.2625 26.6582 34.1939 29.8217 30.6085C32.9715 27.0387 34.6 22.0591 34.6 16.3625H32.6ZM16.275 34.2625C13.3178 34.2625 11.3162 33.4968 9.80253 32.4256C8.25829 31.3329 7.16217 29.8851 6.05754 28.3727L4.44246 29.5524C5.53758 31.0517 6.80396 32.7539 8.64728 34.0583C10.5211 35.3842 12.9322 36.2625 16.275 36.2625V34.2625ZM5.41991 29.948C5.45163 29.9425 5.47622 29.9367 5.48476 29.9346C5.49638 29.9318 5.50581 29.9293 5.51153 29.9278C5.52295 29.9247 5.53236 29.922 5.53746 29.9205C5.54824 29.9173 5.55839 29.9142 5.56555 29.912C5.58077 29.9072 5.59914 29.9014 5.61865 29.8951C5.65843 29.8822 5.71341 29.8642 5.78023 29.8422C5.91437 29.7981 6.10228 29.7358 6.32518 29.6617C6.77129 29.5134 7.36093 29.3166 7.9485 29.1202C8.53618 28.9238 9.12223 28.7277 9.56132 28.5807C9.78088 28.5072 9.96371 28.4459 10.0917 28.4031C10.1556 28.3817 10.2059 28.3648 10.2402 28.3533C10.2573 28.3476 10.2704 28.3432 10.2793 28.3402C10.2837 28.3388 10.2871 28.3376 10.2893 28.3369C10.2904 28.3365 10.2913 28.3362 10.2919 28.336C10.2921 28.3359 10.2924 28.3359 10.2925 28.3358C10.2926 28.3358 10.2926 28.3358 10.2927 28.3358C10.2927 28.3357 10.2927 28.3357 9.975 27.3876C9.65728 26.4394 9.65726 26.4394 9.65723 26.4394C9.65719 26.4394 9.65714 26.4394 9.65707 26.4394C9.65693 26.4395 9.65672 26.4396 9.65644 26.4396C9.65587 26.4398 9.65503 26.4401 9.65391 26.4405C9.65166 26.4412 9.64831 26.4424 9.6439 26.4438C9.63506 26.4468 9.62194 26.4512 9.60483 26.4569C9.5706 26.4684 9.52038 26.4852 9.45644 26.5066C9.32857 26.5495 9.14584 26.6107 8.92639 26.6841C8.48748 26.8311 7.90179 27.0271 7.31456 27.2233C6.72722 27.4196 6.13878 27.616 5.6942 27.7638C5.47176 27.8378 5.28616 27.8993 5.15497 27.9425C5.08912 27.9642 5.03847 27.9807 5.00421 27.9918C4.9867 27.9974 4.97593 28.0009 4.97049 28.0026C4.96732 28.0035 4.96925 28.0029 4.974 28.0015C4.97608 28.0009 4.98302 27.9989 4.99254 27.9963C4.9973 27.995 5.00591 27.9928 5.01685 27.9901C5.02472 27.9882 5.04876 27.9825 5.08009 27.9771L5.41991 29.948ZM10.686 26.6843C5.77504 21.7195 5.40639 14.3867 9.21309 9.06968L7.58691 7.90541C3.22461 13.9984 3.65396 22.4191 9.26404 28.0908L10.686 26.6843ZM7.51923 8.96109C9.55391 12.7456 13.3748 16.304 17.6138 17.3343L18.0862 15.3908C14.5342 14.5276 11.1206 11.436 9.28077 8.01401L7.51923 8.96109ZM18.8495 16.3956C18.9175 14.3393 19.6445 12.6184 20.8189 11.4182C21.988 10.2235 23.6555 9.48755 25.725 9.48755V7.48755C23.1553 7.48755 20.9605 8.41407 19.3895 10.0194C17.8239 11.6192 16.933 13.8358 16.8505 16.3295L18.8495 16.3956ZM25.725 9.48755C27.1752 9.48755 28.2608 9.76309 29.1077 10.215C29.9524 10.6658 30.6213 11.325 31.1901 12.1879L32.8599 11.0872C32.146 10.0041 31.2443 9.08829 30.0493 8.45057C28.8565 7.814 27.4335 7.48755 25.725 7.48755V9.48755ZM32.025 12.6375H36.75V10.6375H32.025V12.6375ZM35.9179 11.0828L32.768 15.8078L34.4321 16.9172L37.5821 12.1922L35.9179 11.0828Z" fill="black"/>
</svg>
