<svg width="42" height="42" viewBox="0 0 42 42" fill="none" xmlns="http://www.w3.org/2000/svg">
<path fill-rule="evenodd" clip-rule="evenodd" d="M13.125 5.25H28.882C33.2272 5.25 36.75 8.77275 36.75 13.118V28.8838C36.75 33.2273 33.2272 36.75 28.882 36.75H13.118C8.77275 36.75 5.25 33.2272 5.25 28.882V13.125C5.25 8.77625 8.77625 5.25 13.125 5.25V5.25Z" stroke="black" stroke-width="2" stroke-linecap="round" stroke-linejoin="round"/>
<path d="M18.6969 16.877H20.8231V27.51H20.8196C18.6304 27.51 16.2241 26.18 14.5179 23.73C11.9559 20.139 11.2559 17.4247 11.2559 16.8787" stroke="black" stroke-width="2" stroke-linecap="round" stroke-linejoin="round"/>
<path d="M29.151 27.5099C29.151 27.5099 28.3775 25.8789 26.8078 24.0852C25.7613 22.8584 24.2878 22.1952 22.9473 22.1952C24.2878 22.1952 25.7613 21.5302 26.8078 20.3052C28.3775 18.5097 29.151 16.8787 29.151 16.8787" stroke="black" stroke-width="2" stroke-linecap="round" stroke-linejoin="round"/>
<path d="M22.9473 22.197H20.8193" stroke="black" stroke-width="2" stroke-linecap="round" stroke-linejoin="round"/>
</svg>
