<svg width="54" height="54" viewBox="0 0 54 54" fill="none" xmlns="http://www.w3.org/2000/svg">
<g clip-path="url(#clip0_263_3048)">
<path d="M30.6347 49.2098C34.0494 48.8651 37.2693 47.454 39.8392 45.176C42.9929 41.8822 44.8246 37.5404 44.9843 32.9799V18.042C44.8027 13.6188 42.9678 9.42554 39.8435 6.29378C36.7192 3.16201 32.5338 1.32051 28.1172 1.13452H25.9301C21.5135 1.32051 17.3281 3.16201 14.2038 6.29378C11.0795 9.42554 9.24459 13.6188 9.06299 18.042V32.9799" stroke="black" stroke-width="2" stroke-linecap="round" stroke-linejoin="round"/>
<path d="M33.2464 21.0517C33.4773 21.0485 33.7039 21.1143 33.8975 21.2405C34.091 21.3667 34.2427 21.5477 34.3332 21.7604C34.4238 21.9732 34.4491 22.2081 34.406 22.4354C34.3628 22.6626 34.2532 22.8718 34.091 23.0365C33.9288 23.2011 33.7214 23.3137 33.4951 23.36C33.2689 23.4063 33.0339 23.3842 32.8203 23.2964C32.6066 23.2086 32.4238 23.0592 32.2951 22.8671C32.1665 22.675 32.0978 22.449 32.0978 22.2177C32.0978 21.9112 32.2183 21.6169 32.4332 21.3987C32.6482 21.1805 32.9403 21.0558 33.2464 21.0517ZM20.7848 21.0517C21.0158 21.0485 21.2424 21.1143 21.436 21.2405C21.6295 21.3667 21.7812 21.5477 21.8717 21.7604C21.9623 21.9732 21.9875 22.2081 21.9444 22.4354C21.9013 22.6626 21.7917 22.8718 21.6295 23.0365C21.4673 23.2011 21.2599 23.3137 21.0336 23.36C20.8073 23.4063 20.5724 23.3842 20.3587 23.2964C20.145 23.2086 19.9623 23.0592 19.8336 22.8671C19.705 22.675 19.6363 22.449 19.6362 22.2177C19.6362 21.9112 19.7567 21.6169 19.9717 21.3987C20.1866 21.1805 20.4788 21.0558 20.7848 21.0517Z" stroke="black" stroke-width="2" stroke-miterlimit="22.93"/>
<path d="M8.52789 33.2162C6.481 32.9231 4.60839 31.9004 3.25374 30.3359C1.89908 28.7715 1.15332 26.7702 1.15332 24.6994C1.15332 22.6287 1.89908 20.6274 3.25374 19.063C4.60839 17.4985 6.481 16.4758 8.52789 16.1827M45.4562 33.2162C47.5031 32.9231 49.3758 31.9004 50.7304 30.3359C52.0851 28.7715 52.8308 26.7702 52.8308 24.6994C52.8308 22.6287 52.0851 20.6274 50.7304 19.063C49.3758 17.4985 47.5031 16.4758 45.4562 16.1827M20.1083 32.0187C20.7188 33.3339 21.6917 34.4471 22.9127 35.2271C24.1336 36.0071 25.5517 36.4215 27 36.4215C28.4482 36.4215 29.8663 36.0071 31.0872 35.2271C32.3082 34.4471 33.2811 33.3339 33.8915 32.0187" stroke="black" stroke-width="2" stroke-linecap="round" stroke-linejoin="round"/>
<path d="M27.0003 45.6329C27.716 45.6329 28.4157 45.8455 29.0108 46.2437C29.6059 46.6419 30.0697 47.2079 30.3436 47.8702C30.6175 48.5324 30.6892 49.2611 30.5496 49.9641C30.41 50.6671 30.0653 51.3129 29.5592 51.8198C29.0531 52.3266 28.4082 52.6718 27.7063 52.8116C27.0043 52.9514 26.2766 52.8797 25.6153 52.6054C24.9541 52.331 24.3889 51.8665 23.9913 51.2705C23.5936 50.6746 23.3813 49.9739 23.3813 49.2571C23.3813 48.2959 23.7626 47.3741 24.4413 46.6944C25.12 46.0148 26.0405 45.6329 27.0003 45.6329Z" stroke="black" stroke-width="2" stroke-miterlimit="22.93"/>
<path d="M8.74805 16.6239C11.327 16.0885 13.7584 14.9963 15.8726 13.4233C17.9868 11.8503 19.7329 9.83441 20.9893 7.51619C23.7766 10.3847 27.4332 12.2492 31.3891 12.8192C35.345 13.3893 39.3781 12.6328 42.8599 10.6676" stroke="black" stroke-width="2" stroke-linecap="round" stroke-linejoin="round"/>
</g>
<defs>
<clipPath id="clip0_263_3048">
<rect width="54" height="54" fill="white"/>
</clipPath>
</defs>
</svg>
