<svg width="69" height="50" viewBox="0 0 69 50" fill="none" xmlns="http://www.w3.org/2000/svg">
<path d="M61.1958 19.1761C58.592 12.3723 54.4259 12.3723 54.4259 12.3723H44.5864V30.9412H64.8273C63.8994 26.9366 62.6857 23.0047 61.1958 19.1761Z" fill="white"/>
<path d="M44.5931 0H0V41.4643H44.5931V0Z" fill="#FFCD00"/>
<path d="M61.1958 19.1761C58.592 12.3723 54.4259 12.3723 54.4259 12.3723H44.5864V30.9412H64.8273C63.8994 26.9366 62.6857 23.0047 61.1958 19.1761ZM47.7795 27.2495V16.0916H54.7411C54.5013 16.0916 56.2897 16.7817 57.8451 20.8391C58.7427 23.1714 59.4759 25.3381 60.0857 27.2288L47.7795 27.2495Z" fill="#00569D"/>
<path d="M69.0002 36.5098C69.0002 39.2699 67.1433 41.4643 64.8342 41.4643H48.7525C46.457 41.4643 44.5933 39.2492 44.5933 36.5098V32.1764C44.5933 29.4162 46.457 27.2288 48.7525 27.2288H64.8342C67.1433 27.2288 69.0002 29.4438 69.0002 32.1764V36.5098Z" fill="#00569D"/>
<path d="M69 35.8957H0V43.3204H69V35.8957Z" fill="#8A8A8A"/>
<path d="M69 38.0486H0V39.822H69V38.0486Z" fill="white"/>
<path d="M69 40.7811H0V41.2366H69V40.7811Z" fill="white"/>
<path d="M61.9084 43.3204C61.8613 44.5827 61.4466 45.8031 60.7158 46.8297C59.9851 47.8564 58.9706 48.6438 57.7987 49.0941C56.6268 49.5443 55.3492 49.6375 54.1252 49.3619C52.9011 49.0863 51.7845 48.4542 50.9146 47.5443C50.0446 46.6343 49.4597 45.4868 49.2326 44.2445C49.0055 43.0022 49.1463 41.7201 49.6375 40.5579C50.1287 39.3956 50.9485 38.4045 51.9949 37.708C53.0412 37.0116 54.268 36.6404 55.5223 36.6409C56.3771 36.6571 57.2205 36.8427 58.0041 37.1871C58.7877 37.5316 59.4963 38.0281 60.0894 38.6484C60.6824 39.2687 61.1483 40.0006 61.4604 40.8022C61.7725 41.6038 61.9247 42.4595 61.9084 43.3204Z" fill="#00569D"/>
<path d="M59.5376 43.3205C59.5079 44.1159 59.2462 44.8849 58.7851 45.5314C58.324 46.1779 57.684 46.6733 56.9449 46.9557C56.2059 47.238 55.4007 47.2948 54.6298 47.119C53.8589 46.9432 53.1565 46.5425 52.6104 45.967C52.0643 45.3916 51.6987 44.6668 51.5592 43.8833C51.4197 43.0998 51.5126 42.2923 51.8262 41.5616C52.1397 40.8309 52.6601 40.2095 53.3223 39.7749C53.9846 39.3404 54.7593 39.1119 55.5497 39.1181C56.6293 39.1506 57.6528 39.6097 58.399 40.396C59.1453 41.1824 59.5542 42.2329 59.5376 43.3205Z" fill="white"/>
<g opacity="0.3">
<path d="M24.5577 0H0V35.8957V41.4643V43.3205H24.5577V0Z" fill="white"/>
</g>
<path d="M19.8639 43.3204C19.8169 44.5827 19.4021 45.8031 18.6714 46.8297C17.9406 47.8564 16.9261 48.6438 15.7542 49.0941C14.5823 49.5443 13.3048 49.6375 12.0807 49.3619C10.8566 49.0863 9.74011 48.4542 8.87015 47.5443C8.0002 46.6343 7.41525 45.4868 7.18817 44.2445C6.96108 43.0022 7.1019 41.7201 7.59306 40.5579C8.08423 39.3956 8.90404 38.4045 9.95042 37.708C10.9968 37.0116 12.2235 36.6404 13.4778 36.6409C14.3327 36.6571 15.176 36.8427 15.9597 37.1871C16.7433 37.5316 17.4519 38.0281 18.0449 38.6484C18.6379 39.2687 19.1038 40.0006 19.4159 40.8022C19.728 41.6038 19.8803 42.4595 19.8639 43.3204Z" fill="#00569D"/>
<path d="M17.5 43.3205C17.4704 44.1144 17.2096 44.8821 16.7501 45.5279C16.2905 46.1738 15.6525 46.6692 14.9154 46.9527C14.1784 47.2361 13.3748 47.295 12.6048 47.122C11.8348 46.9489 11.1323 46.5517 10.5847 45.9796C10.0372 45.4076 9.66883 44.686 9.52546 43.9047C9.38209 43.1234 9.47007 42.3169 9.77843 41.5855C10.0868 40.8542 10.6019 40.2304 11.2597 39.7916C11.9175 39.3529 12.6889 39.1187 13.4778 39.1181C14.5634 39.1417 15.5957 39.5968 16.3493 40.3842C17.1028 41.1715 17.5165 42.2271 17.5 43.3205Z" fill="white"/>
<g style="mix-blend-mode:multiply">
<path d="M47.7793 16.0916L60.0856 27.2288H47.7793V16.0916Z" fill="#E3E3E3"/>
</g>
<path d="M65.3755 27.2495L64.8342 27.2081C64.8342 27.2081 63.916 31.3483 69.0002 33.7359V32.1557C69.0002 29.6578 67.4243 27.5876 65.3755 27.2495Z" fill="#FFCD00"/>
<g style="mix-blend-mode:multiply">
<path d="M69.0002 33.6876H44.5933V35.9716H69.0002V33.6876Z" fill="#E3E3E3"/>
</g>
</svg>
