<svg width="22" height="22" viewBox="0 0 22 22" fill="none" xmlns="http://www.w3.org/2000/svg">
<path fill-rule="evenodd" clip-rule="evenodd" d="M18.3333 2.75H8.09233C7.6065 2.75 7.13992 2.94342 6.79617 3.28717L3.28717 6.79617C2.94342 7.13992 2.75 7.6065 2.75 8.09233V18.3333C2.75 18.8393 3.16067 19.25 3.66667 19.25H13.9077C14.3935 19.25 14.8601 19.0566 15.2038 18.7128L18.7128 15.2038C19.0566 14.8601 19.25 14.3935 19.25 13.9077V3.66667C19.25 3.16067 18.8393 2.75 18.3333 2.75Z" stroke="black" stroke-width="1.6" stroke-linecap="round" stroke-linejoin="round"/>
<path d="M7.33333 2.9205V8.25H2.75" stroke="black" stroke-width="1.6" stroke-linecap="round" stroke-linejoin="round"/>
<path d="M19.2498 13.75H14.6665V19.0795" stroke="black" stroke-width="1.6" stroke-linecap="round" stroke-linejoin="round"/>
<path d="M14.6665 8.25L18.9473 2.9975" stroke="black" stroke-width="1.6" stroke-linecap="round" stroke-linejoin="round"/>
<path d="M3.05273 19.0025L7.33357 13.75" stroke="black" stroke-width="1.6" stroke-linecap="round" stroke-linejoin="round"/>
<path fill-rule="evenodd" clip-rule="evenodd" d="M7.3335 8.25H14.6668V13.75H7.3335V8.25Z" stroke="black" stroke-width="1.6" stroke-linecap="round" stroke-linejoin="round"/>
</svg>
