<svg width="62" height="60" viewBox="0 0 62 60" fill="none" xmlns="http://www.w3.org/2000/svg">
<path d="M62.0001 6.45578H18.52V45.8191H62.0001V6.45578Z" fill="#FFCD00"/>
<path d="M55.8789 0H40.26H24.6472L18.52 6.45577H40.26H62.0001L55.8789 0Z" fill="#FFDC4C"/>
<path d="M43.2032 4.28571H40.26H37.3167L36.1611 6.45576H40.26H44.3588L43.2032 4.28571Z" fill="white"/>
<path d="M60.6095 34.5638H50.5039V43.5946H60.6095V34.5638Z" fill="white"/>
<path d="M51.8583 35.3254H51.3467V42.839H51.8583V35.3254Z" fill="#8A8A8A"/>
<path d="M53.7239 35.3254H52.9775V42.839H53.7239V35.3254Z" fill="#8A8A8A"/>
<path d="M52.7551 35.3254H52.0088V42.839H52.7551V35.3254Z" fill="#8A8A8A"/>
<path d="M56.1314 35.3254H55.3911V42.839H56.1314V35.3254Z" fill="#8A8A8A"/>
<path d="M54.6088 35.3254H54.0972V42.839H54.6088V35.3254Z" fill="#8A8A8A"/>
<path d="M54.6088 35.3254H54.0972V42.839H54.6088V35.3254Z" fill="#8A8A8A"/>
<path d="M58.8101 35.3254H58.0698V42.839H58.8101V35.3254Z" fill="#8A8A8A"/>
<path d="M59.8453 35.3254H59.105V42.839H59.8453V35.3254Z" fill="#8A8A8A"/>
<path d="M56.9862 35.3254H56.4746V42.839H56.9862V35.3254Z" fill="#8A8A8A"/>
<path d="M57.9135 35.3254H57.4019V42.839H57.9135V35.3254Z" fill="#8A8A8A"/>
<path d="M55.7346 12.3554C55.7526 11.9548 55.6896 11.5547 55.5494 11.1792C55.4092 10.8037 55.1946 10.4607 54.9187 10.1708C54.6428 9.88086 54.3112 9.65012 53.9441 9.49248C53.5769 9.33484 53.1817 9.25357 52.7824 9.25357C52.3831 9.25357 51.9879 9.33484 51.6207 9.49248C51.2536 9.65012 50.922 9.88086 50.6461 10.1708C50.3702 10.4607 50.1556 10.8037 50.0154 11.1792C49.8752 11.5547 49.8121 11.9548 49.8302 12.3554H52.322V14.8338C52.1474 15.0333 51.8886 15.2327 51.7201 15.2206C51.5515 15.2086 51.4733 15.0514 51.3469 14.7915L50.4019 15.2569C50.4928 15.5195 50.6526 15.7524 50.8645 15.9312C51.0764 16.11 51.3325 16.2279 51.6057 16.2724H51.7622C52.0684 16.231 52.3626 16.1258 52.6259 15.9633C52.8892 15.8009 53.1157 15.585 53.291 15.3294L53.3873 15.1904V12.3554H55.7346Z" fill="white"/>
<path d="M58.7198 15.4322V12.6456C60.1282 12.3433 60.4653 10.8321 60.4653 9.45999H55.915C55.915 10.814 56.2581 12.3433 57.6665 12.6456V15.4322C56.6854 15.5229 56.4628 15.8855 56.4628 16.2059H59.9717C59.9477 15.8855 59.7009 15.5229 58.7198 15.4322Z" fill="white"/>
<path d="M62.0001 23.3085H18.52V29.0328H62.0001V23.3085Z" fill="#FFCD00"/>
<path d="M44.3588 6.45578H36.1611V10.8261H44.3588V6.45578Z" fill="white"/>
<g style="mix-blend-mode:multiply">
<path d="M44.3588 6.45578H36.1611V10.8261H44.3588V6.45578Z" fill="white"/>
</g>
<g style="mix-blend-mode:multiply">
<path d="M18.52 6.45577V45.8191H40.26V0H24.6472L18.52 6.45577Z" fill="#FFCD00" fill-opacity="0.45"/>
</g>
<path d="M0.902832 27.02V56.9353L12.134 53.5986L24.8397 58.6702L35.4208 54.4751L47.1335 57.969V27.02L35.4208 24.5416L24.8397 28.4586L12.2062 24.3361L0.902832 27.02Z" fill="#EFEFEF"/>
<path d="M24.8397 59.6494L12.0918 54.5598L0 58.1503V26.3006L12.2423 23.3992L24.8217 27.5035L35.3546 23.5986L48.0363 26.2765V59.1779L35.463 55.4302L24.8397 59.6494ZM12.2002 52.6375L24.8397 57.697L35.3787 53.5201L46.2126 56.754V27.7393L35.5111 25.4846L24.8578 29.4258L12.1641 25.2791L1.80565 27.7393V55.7264L12.2002 52.6375Z" fill="white"/>
<g style="mix-blend-mode:multiply">
<path d="M35.4209 23.2541V55.805L35.4751 55.7808L48.3072 59.6131H48.3674V26.077L35.4209 23.2541Z" fill="#E3E3E3"/>
</g>
<path d="M45.8997 33.2521V31.5656L35.0296 33.7538L26.4227 41.6905L24.8518 42.0048L12.0979 39.0611L2.13672 42.301V44.0359L4.2072 43.3589L11.6766 48.4122L24.5208 53.7921L31.8336 54.5658L35.132 53.2601L25.0444 52.2204L12.5252 46.9978L6.19341 42.7181L12.1701 40.7657L24.8277 43.6974L35.3908 41.5515L45.8997 44.4409V42.7302L35.451 39.859L29.5405 41.0558L35.8121 35.271L45.8997 33.2521Z" fill="white"/>
<g style="mix-blend-mode:multiply">
<path d="M12.1338 54.9285L24.8395 60V27.1408L24.8155 27.1529L12.1819 23.0244L12.1338 23.0425V54.9285Z" fill="#E3E3E3"/>
</g>
<path d="M22.0062 36C22.0062 36 15.808 36 16.0046 41.4316C16.2011 46.8633 22.0062 52 22.0062 52C22.0062 52 27.7851 46.851 27.9948 41.4316C28.2045 36.0123 22.0062 36 22.0062 36ZM22.0062 44.172C21.4879 44.172 20.9812 44.0279 20.5502 43.7578C20.1192 43.4878 19.7833 43.1039 19.5849 42.6548C19.3866 42.2057 19.3347 41.7116 19.4358 41.2348C19.5369 40.758 19.7865 40.3201 20.153 39.9764C20.5196 39.6327 20.9866 39.3986 21.4949 39.3037C22.0033 39.2089 22.5303 39.2576 23.0092 39.4436C23.4881 39.6296 23.8974 39.9447 24.1854 40.3488C24.4733 40.753 24.627 41.2282 24.627 41.7143C24.627 42.3661 24.3509 42.9913 23.8594 43.4522C23.3679 43.9131 22.7013 44.172 22.0062 44.172Z" fill="#00569D"/>
<path d="M34.0546 32.7443C34.0546 32.7443 31.2077 32.7443 31.298 35.4161C31.3883 38.0878 34.0546 40.6145 34.0546 40.6145C34.0546 40.6145 36.715 38.0818 36.8052 35.4161C36.8955 32.7503 34.0546 32.7443 34.0546 32.7443ZM34.0546 36.764C33.8165 36.764 33.5838 36.6931 33.3858 36.5603C33.1879 36.4275 33.0336 36.2386 32.9425 36.0177C32.8514 35.7968 32.8275 35.5538 32.874 35.3192C32.9204 35.0847 33.0351 34.8693 33.2034 34.7002C33.3718 34.5312 33.5863 34.416 33.8198 34.3694C34.0533 34.3227 34.2953 34.3467 34.5153 34.4382C34.7352 34.5297 34.9233 34.6846 35.0555 34.8834C35.1878 35.0823 35.2584 35.316 35.2584 35.5551C35.2584 35.8757 35.1316 36.1832 34.9058 36.4099C34.6801 36.6367 34.3739 36.764 34.0546 36.764Z" fill="#00569D"/>
<g style="mix-blend-mode:multiply">
<path d="M34.0546 33.6873C33.6868 33.6873 33.3272 33.7968 33.0214 34.0021C32.7155 34.2073 32.4772 34.499 32.3364 34.8403C32.1956 35.1816 32.1588 35.5572 32.2306 35.9195C32.3023 36.2818 32.4795 36.6146 32.7396 36.8759C32.9997 37.1371 33.331 37.315 33.6918 37.387C34.0526 37.4591 34.4265 37.4221 34.7664 37.2807C35.1062 37.1394 35.3967 36.9 35.601 36.5928C35.8054 36.2857 35.9145 35.9245 35.9145 35.5551C35.9145 35.0597 35.7185 34.5846 35.3697 34.2344C35.021 33.8841 34.5479 33.6873 34.0546 33.6873ZM34.0546 36.7641C33.8166 36.7641 33.5838 36.6931 33.3859 36.5603C33.1879 36.4275 33.0336 36.2387 32.9425 36.0177C32.8514 35.7968 32.8276 35.5538 32.874 35.3193C32.9205 35.0847 33.0351 34.8693 33.2035 34.7003C33.3718 34.5312 33.5863 34.416 33.8198 34.3694C34.0533 34.3227 34.2953 34.3467 34.5153 34.4382C34.7353 34.5297 34.9233 34.6846 35.0555 34.8835C35.1878 35.0823 35.2584 35.316 35.2584 35.5551C35.2584 35.8757 35.1316 36.1832 34.9058 36.41C34.6801 36.6367 34.3739 36.7641 34.0546 36.7641Z" fill="#E3E3E3"/>
</g>
<g style="mix-blend-mode:multiply">
<path d="M32.845 35.5551C32.845 35.2345 32.9718 34.927 33.1976 34.7002C33.4233 34.4735 33.7295 34.3461 34.0488 34.3461V32.7443C34.0488 32.7443 31.2019 32.7443 31.2921 35.4161C31.3824 38.0878 34.0488 40.6145 34.0488 40.6145V36.764C33.7295 36.764 33.4233 36.6367 33.1976 36.4099C32.9718 36.1832 32.845 35.8757 32.845 35.5551Z" fill="#E3E3E3"/>
</g>
<path d="M8.60084 31.082C8.60084 31.082 5.11594 31.082 5.23029 34.3462C5.34465 37.6103 8.60084 40.7052 8.60084 40.7052C8.60084 40.7052 11.857 37.6103 11.9714 34.3462C12.0857 31.082 8.60084 31.082 8.60084 31.082ZM8.60084 35.9964C8.30893 35.9964 8.02359 35.9094 7.78097 35.7464C7.53834 35.5834 7.34934 35.3517 7.23791 35.0807C7.12648 34.8098 7.09763 34.5117 7.15502 34.2243C7.2124 33.9368 7.35345 33.6729 7.56028 33.4661C7.76711 33.2592 8.03042 33.1186 8.31686 33.0622C8.60331 33.0057 8.89999 33.0359 9.16933 33.1489C9.43868 33.2619 9.66856 33.4527 9.82987 33.697C9.99117 33.9414 10.0766 34.2283 10.0755 34.5215C10.0755 34.7157 10.0373 34.9079 9.96309 35.0873C9.88891 35.2666 9.7802 35.4295 9.64319 35.5665C9.50618 35.7036 9.34357 35.8121 9.1647 35.8858C8.98582 35.9596 8.79421 35.9972 8.60084 35.9964Z" fill="#00569D"/>
<g style="mix-blend-mode:multiply">
<path d="M8.6008 32.2305C8.15108 32.2305 7.71144 32.3644 7.33743 32.6152C6.96342 32.866 6.67182 33.2225 6.49944 33.6396C6.32707 34.0568 6.28166 34.5159 6.36896 34.959C6.45626 35.402 6.67235 35.8092 6.98993 36.1289C7.30751 36.4487 7.71233 36.6668 8.15326 36.7557C8.5942 36.8445 9.05146 36.8001 9.46728 36.6281C9.88311 36.4561 10.2389 36.1642 10.4896 35.7892C10.7403 35.4143 10.8747 34.9731 10.8759 34.5215C10.8759 33.9149 10.6364 33.3331 10.2099 32.9036C9.78342 32.4742 9.20475 32.2321 8.6008 32.2305ZM8.6008 35.9964C8.30889 35.9964 8.02355 35.9094 7.78092 35.7464C7.53829 35.5834 7.34929 35.3517 7.23786 35.0807C7.12643 34.8098 7.09758 34.5117 7.15497 34.2243C7.21236 33.9368 7.3534 33.6729 7.56023 33.4661C7.76706 33.2592 8.03038 33.1186 8.31682 33.0622C8.60326 33.0057 8.89995 33.0359 9.16929 33.1489C9.43863 33.2619 9.66852 33.4527 9.82982 33.697C9.99113 33.9414 10.0766 34.2283 10.0754 34.5215C10.0754 34.7157 10.0372 34.9079 9.96305 35.0873C9.88887 35.2666 9.78015 35.4295 9.64314 35.5665C9.50613 35.7036 9.34352 35.8121 9.16465 35.8858C8.98578 35.9596 8.79416 35.9972 8.6008 35.9964Z" fill="#E3E3E3"/>
</g>
<g style="mix-blend-mode:multiply">
<path d="M7.12623 34.5215C7.12543 34.3265 7.16299 34.1332 7.23674 33.9529C7.31049 33.7725 7.41899 33.6085 7.556 33.4704C7.69301 33.3322 7.85583 33.2226 8.03514 33.1478C8.21444 33.073 8.40668 33.0344 8.60084 33.0345V31.082C8.60084 31.082 5.11594 31.082 5.23029 34.3462C5.34465 37.6103 8.60084 40.7052 8.60084 40.7052V35.9964C8.40748 35.9972 8.21586 35.9596 8.03698 35.8858C7.85811 35.8121 7.6955 35.7036 7.5585 35.5665C7.42149 35.4295 7.31277 35.2666 7.23859 35.0873C7.16441 34.9079 7.12622 34.7157 7.12623 34.5215Z" fill="#E3E3E3"/>
</g>
</svg>
