<svg width="25" height="24" viewBox="0 0 25 24" fill="none" xmlns="http://www.w3.org/2000/svg">
<path d="M21.5 11V19C21.5 20.105 20.605 21 19.5 21H5.5C4.395 21 3.5 20.105 3.5 19V5C3.5 3.895 4.395 3 5.5 3H12.5" stroke="black" stroke-width="1.5" stroke-linecap="round" stroke-linejoin="round"/>
<path fill-rule="evenodd" clip-rule="evenodd" d="M9.5 15L12.65 14.611C12.871 14.584 13.077 14.483 13.235 14.326L20.866 6.69499C21.711 5.84999 21.711 4.47999 20.866 3.63399V3.63399C20.021 2.78899 18.651 2.78899 17.805 3.63399L10.245 11.194C10.092 11.347 9.993 11.545 9.962 11.76L9.5 15Z" stroke="black" stroke-width="1.5" stroke-linecap="round" stroke-linejoin="round"/>
</svg>
