<svg width="25" height="24" viewBox="0 0 25 24" fill="none" xmlns="http://www.w3.org/2000/svg">
<path d="M6.5 3H18.5C19.6046 3 20.5 3.89543 20.5 5V17C20.5 18.1046 19.6046 19 18.5 19H16.5" stroke="#003663" stroke-width="1.5" stroke-linecap="round" stroke-linejoin="round"/>
<path d="M8.5 13.6666L12.5 15" stroke="#003663" stroke-width="1.5" stroke-linecap="round" stroke-linejoin="round"/>
<path d="M8.5 9.66656L12.5 11" stroke="#323232" stroke-width="1.5" stroke-linecap="round" stroke-linejoin="round"/>
<path fill-rule="evenodd" clip-rule="evenodd" d="M13.8675 21.8958L5.86754 19.2292C5.05086 18.9569 4.5 18.1927 4.5 17.3318V5.00154C4.5 4.35865 4.80905 3.75495 5.33058 3.37905C5.85212 3.00315 6.52256 2.90088 7.13246 3.10418L15.1325 5.77084C15.9491 6.04307 16.5 6.80734 16.5 7.66821V19.9985C16.5 20.6414 16.191 21.2451 15.6694 21.621C15.1479 21.9969 14.4774 22.0991 13.8675 21.8958Z" stroke="#323232" stroke-width="1.5" stroke-linecap="round" stroke-linejoin="round"/>
</svg>
