<svg width="21" height="21" viewBox="0 0 21 21" fill="none" xmlns="http://www.w3.org/2000/svg">
<path fill-rule="evenodd" clip-rule="evenodd" d="M17.4645 15.11L16.2915 13.937C15.7055 13.351 14.7555 13.351 14.1705 13.937L13.2485 14.859C13.0425 15.065 12.7305 15.134 12.4645 15.017C11.1285 14.432 9.80854 13.545 8.63154 12.368C7.45954 11.196 6.57554 9.882 5.98954 8.551C5.86754 8.276 5.93854 7.953 6.15154 7.74L6.97754 6.914C7.64854 6.243 7.64854 5.294 7.06254 4.708L5.88954 3.535C5.10854 2.754 3.84254 2.754 3.06154 3.535L2.40954 4.186C1.66854 4.927 1.35954 5.996 1.55954 7.056C2.05354 9.669 3.57154 12.53 6.02054 14.979C8.46954 17.428 11.3305 18.946 13.9435 19.44C15.0035 19.64 16.0725 19.331 16.8135 18.59L17.4645 17.939C18.2455 17.158 18.2455 15.892 17.4645 15.11V15.11Z" stroke="#323232" stroke-width="1.5" stroke-linecap="round" stroke-linejoin="round"/>
<path d="M11.5 5.491C12.531 5.477 13.567 5.859 14.354 6.646" stroke="#323232" stroke-width="1.5" stroke-linecap="round" stroke-linejoin="round"/>
<path d="M17.182 3.81799C15.613 2.24899 13.556 1.46399 11.5 1.46399" stroke="#323232" stroke-width="1.5" stroke-linecap="round" stroke-linejoin="round"/>
<path d="M15.5085 9.5C15.5225 8.469 15.1405 7.433 14.3535 6.646" stroke="#323232" stroke-width="1.5" stroke-linecap="round" stroke-linejoin="round"/>
<path d="M17.1816 3.81799C18.7506 5.38699 19.5356 7.44399 19.5356 9.49999" stroke="#323232" stroke-width="1.5" stroke-linecap="round" stroke-linejoin="round"/>
</svg>
